<svg width="1668" height="874" viewBox="0 0 1668 874" fill="none" xmlns="http://www.w3.org/2000/svg">
<g clip-path="url(#clip0_104_78)">
<circle cx="793" cy="385" r="401" transform="rotate(-90 793 385)" fill="url(#paint0_radial_104_78)"/>
<circle cx="834" cy="437" r="320" transform="rotate(-90 834 437)" fill="#2655FC"/>
<path d="M1131.82 304.404C1110.29 256.06 1077.32 213.682 1035.75 180.931C994.187 148.18 945.271 126.041 893.232 116.426C841.194 106.811 787.597 110.009 737.07 125.743C686.544 141.478 640.608 169.276 603.23 206.737C565.851 244.198 538.154 290.195 522.531 340.756C506.908 391.317 503.828 444.921 513.557 496.938C523.287 548.955 545.534 597.822 578.376 639.317C611.218 680.813 653.668 713.689 702.06 735.107" stroke="#00B3FF" stroke-opacity="0.19" stroke-width="12" stroke-linecap="round" stroke-linejoin="round"/>
<rect x="643" y="287" width="71" height="39" rx="19.5" fill="white"/>
<rect x="731" y="185" width="93" height="51" rx="25.5" fill="white"/>
<rect x="539" y="426" width="93" height="51" rx="25.5" fill="white"/>
<rect x="597" y="522" width="93" height="51" rx="25.5" fill="white"/>
<rect x="714" y="205" width="57" height="31" rx="15.5" fill="white"/>
<rect x="581" y="259" width="103" height="56" rx="28" fill="white"/>
<rect x="581" y="409" width="77" height="42" rx="21" fill="white"/>
<rect x="747" y="351" width="77" height="42" rx="21" fill="white"/>
<path fill-rule="evenodd" clip-rule="evenodd" d="M671.655 712.82C643.581 665.226 627.475 609.732 627.475 550.475C627.475 373.744 770.744 230.475 947.475 230.475C1006.73 230.475 1062.23 246.582 1109.82 274.655C1137.89 322.249 1154 377.744 1154 437C1154 613.731 1010.73 757 834 757C774.743 757 719.249 740.894 671.655 712.82Z" fill="black" fill-opacity="0.16"/>
<path fill-rule="evenodd" clip-rule="evenodd" d="M709.384 731.829C693.176 693.529 684.213 651.418 684.213 607.213C684.213 430.482 827.482 287.213 1004.21 287.213C1048.42 287.213 1090.53 296.176 1128.83 312.384C1145.04 350.684 1154 392.795 1154 437C1154 613.731 1010.73 757 834 757C789.795 757 747.684 748.037 709.384 731.829Z" fill="black"/>
</g>
<g filter="url(#filter0_d_104_78)">
<path fill-rule="evenodd" clip-rule="evenodd" d="M1625.58 243.52C1650.66 337.143 1316.6 508.001 879.422 625.142C442.247 742.283 67.5094 761.348 42.4229 667.724C22.4325 593.118 230.506 469.467 537.082 363.037C531.829 364.86 526.606 366.689 521.412 368.522C520.664 371.935 519.973 375.357 519.338 378.788C245.117 477.447 62.0914 589.146 80.4188 657.544C104.301 746.673 461.051 728.523 877.242 617.005C1293.43 505.487 1611.46 342.83 1587.58 253.701C1569.46 186.095 1359.83 180.211 1078.01 229.98C1075.74 227.304 1073.43 224.665 1071.07 222.065C1376.76 166.089 1606.14 170.974 1625.58 243.52ZM1489.38 280.013C1510.61 359.233 1227.9 503.814 857.945 602.944C487.986 702.075 170.868 718.215 149.641 638.995C133.884 580.19 285.6 485.368 516.162 399.857C515.481 405.692 514.96 411.542 514.601 417.4C323.938 491.425 201.108 571.165 214.618 621.585C233.786 693.12 520.144 678.545 854.217 589.031C1188.29 499.516 1443.57 368.96 1424.4 297.424C1411.83 250.492 1284.24 240.624 1103.63 264.666C1100.35 259.53 1096.92 254.495 1093.36 249.565C1314.75 215.836 1474.52 224.572 1489.38 280.013ZM851.768 581.824C1167.05 497.345 1407.97 374.155 1389.89 306.672C1378.53 264.296 1267.75 253.962 1108.82 273.057C1109.81 274.719 1110.78 276.391 1111.75 278.073C1258.09 261.757 1359.27 272.304 1369.91 312.026C1387.36 377.147 1154.87 496.025 850.622 577.547C546.379 659.069 285.595 672.364 268.145 607.242C256.149 562.471 362.289 492.292 528.663 426.311C523.734 428.266 518.858 430.224 514.036 432.186C514.064 430.35 514.108 428.515 514.167 426.68C344.039 494.593 235.829 566.558 248.165 612.596C266.247 680.079 536.49 666.302 851.768 581.824Z" fill="#48697B"/>
</g>
<ellipse cx="1042.06" cy="511.153" rx="277.506" ry="128.388" transform="rotate(5.23079 1042.06 511.153)" fill="black"/>
<defs>
<filter id="filter0_d_104_78" x="0.0976562" y="143.09" width="1667.8" height="625.065" filterUnits="userSpaceOnUse" color-interpolation-filters="sRGB">
<feFlood flood-opacity="0" result="BackgroundImageFix"/>
<feColorMatrix in="SourceAlpha" type="matrix" values="0 0 0 0 0 0 0 0 0 0 0 0 0 0 0 0 0 0 127 0" result="hardAlpha"/>
<feOffset/>
<feGaussianBlur stdDeviation="20.5"/>
<feComposite in2="hardAlpha" operator="out"/>
<feColorMatrix type="matrix" values="0 0 0 0 1 0 0 0 0 1 0 0 0 0 1 0 0 0 0.46 0"/>
<feBlend mode="normal" in2="BackgroundImageFix" result="effect1_dropShadow_104_78"/>
<feBlend mode="normal" in="SourceGraphic" in2="effect1_dropShadow_104_78" result="shape"/>
</filter>
<radialGradient id="paint0_radial_104_78" cx="0" cy="0" r="1" gradientUnits="userSpaceOnUse" gradientTransform="translate(793 385) rotate(90) scale(401)">
<stop offset="0.609375" stop-color="#00C2FF" stop-opacity="0.89"/>
<stop offset="1" stop-color="#00C2FF" stop-opacity="0"/>
</radialGradient>
<clipPath id="clip0_104_78">
<rect width="874" height="874" fill="white" transform="translate(397 874) rotate(-90)"/>
</clipPath>
</defs>
</svg>
