<svg width="2826" height="1558" viewBox="0 0 2826 1558" fill="none" xmlns="http://www.w3.org/2000/svg">
<circle cx="1412" cy="779" r="779" fill="url(#paint0_radial_105_131)"/>
<circle cx="1301" cy="793" r="502" fill="#DB5B13"/>
<mask id="path-3-outside-1_105_131" maskUnits="userSpaceOnUse" x="1020" y="262" width="812" height="1062" fill="black">
<rect fill="white" x="1020" y="262" width="812" height="1062"/>
<path d="M1049.32 1227.35C1124.73 1271.05 1210.22 1294.36 1297.38 1294.99C1384.53 1295.62 1470.35 1273.54 1546.39 1230.94C1622.42 1188.33 1686.05 1126.67 1731.02 1052.01C1775.99 977.348 1800.75 892.266 1802.85 805.134C1804.96 718.002 1784.35 631.823 1743.04 555.077C1701.73 478.331 1641.15 413.661 1567.26 367.433C1493.38 321.204 1408.73 295.009 1321.64 291.425C1234.56 287.84 1148.04 306.991 1070.61 346.991L1301 793L1049.32 1227.35Z"/>
</mask>
<path d="M1049.32 1227.35C1124.73 1271.05 1210.22 1294.36 1297.38 1294.99C1384.53 1295.62 1470.35 1273.54 1546.39 1230.94C1622.42 1188.33 1686.05 1126.67 1731.02 1052.01C1775.99 977.348 1800.75 892.266 1802.85 805.134C1804.96 718.002 1784.35 631.823 1743.04 555.077C1701.73 478.331 1641.15 413.661 1567.26 367.433C1493.38 321.204 1408.73 295.009 1321.64 291.425C1234.56 287.84 1148.04 306.991 1070.61 346.991L1301 793L1049.32 1227.35Z" fill="#DB5B13"/>
<path d="M1049.32 1227.35C1124.73 1271.05 1210.22 1294.36 1297.38 1294.99C1384.53 1295.62 1470.35 1273.54 1546.39 1230.94C1622.42 1188.33 1686.05 1126.67 1731.02 1052.01C1775.99 977.348 1800.75 892.266 1802.85 805.134C1804.96 718.002 1784.35 631.823 1743.04 555.077C1701.73 478.331 1641.15 413.661 1567.26 367.433C1493.38 321.204 1408.73 295.009 1321.64 291.425C1234.56 287.84 1148.04 306.991 1070.61 346.991L1301 793L1049.32 1227.35Z" stroke="#EA3A03" stroke-opacity="0.29" stroke-width="58" stroke-linejoin="round" mask="url(#path-3-outside-1_105_131)"/>
<mask id="path-4-inside-2_105_131" fill="white">
<path fill-rule="evenodd" clip-rule="evenodd" d="M1740.92 551H977C951.595 551 931 530.405 931 505C931 479.595 951.595 459 977 459L1675.77 459C1700.76 487.024 1722.66 517.87 1740.92 551Z"/>
</mask>
<path fill-rule="evenodd" clip-rule="evenodd" d="M1740.92 551H977C951.595 551 931 530.405 931 505C931 479.595 951.595 459 977 459L1675.77 459C1700.76 487.024 1722.66 517.87 1740.92 551Z" fill="#D9D9D9"/>
<path d="M1740.92 551V563H1761.24L1751.43 545.207L1740.92 551ZM1675.77 459L1684.73 451.013L1681.15 447H1675.77V459ZM1740.92 539H977V563H1740.92V539ZM977 539C958.222 539 943 523.778 943 505H919C919 537.033 944.967 563 977 563V539ZM943 505C943 486.222 958.222 471 977 471V447C944.967 447 919 472.967 919 505H943ZM977 471L1675.77 471V447L977 447V471ZM1666.82 466.987C1691.21 494.346 1712.59 524.457 1730.42 556.793L1751.43 545.207C1732.73 511.284 1710.31 479.703 1684.73 451.013L1666.82 466.987Z" fill="#AD4A02" mask="url(#path-4-inside-2_105_131)"/>
<mask id="path-6-inside-3_105_131" fill="white">
<path fill-rule="evenodd" clip-rule="evenodd" d="M803.567 725H1709C1738.82 725 1763 749.177 1763 779C1763 808.823 1738.82 833 1709 833H800.57C799.53 819.804 799 806.464 799 793C799 769.937 800.555 747.237 803.567 725Z"/>
</mask>
<path fill-rule="evenodd" clip-rule="evenodd" d="M803.567 725H1709C1738.82 725 1763 749.177 1763 779C1763 808.823 1738.82 833 1709 833H800.57C799.53 819.804 799 806.464 799 793C799 769.937 800.555 747.237 803.567 725Z" fill="#D9D9D9"/>
<path d="M803.567 725V713H793.082L791.675 723.39L803.567 725ZM800.57 833L788.607 833.943L789.479 845H800.57V833ZM803.567 737H1709V713H803.567V737ZM1709 737C1732.2 737 1751 755.804 1751 779H1775C1775 742.549 1745.45 713 1709 713V737ZM1751 779C1751 802.196 1732.2 821 1709 821V845C1745.45 845 1775 815.451 1775 779H1751ZM1709 821H800.57V845H1709V821ZM812.533 832.057C811.518 819.174 811 806.149 811 793H787C787 806.779 787.542 820.433 788.607 833.943L812.533 832.057ZM811 793C811 770.477 812.519 748.315 815.458 726.61L791.675 723.39C788.592 746.159 787 769.397 787 793H811Z" fill="#C74800" mask="url(#path-6-inside-3_105_131)"/>
<mask id="path-8-inside-4_105_131" fill="white">
<path fill-rule="evenodd" clip-rule="evenodd" d="M1755.23 1007C1736.25 1047.21 1712.09 1084.5 1683.61 1118H1051.5C1020.85 1118 996 1093.15 996 1062.5C996 1031.85 1020.85 1007 1051.5 1007L1755.23 1007Z"/>
</mask>
<path fill-rule="evenodd" clip-rule="evenodd" d="M1755.23 1007C1736.25 1047.21 1712.09 1084.5 1683.61 1118H1051.5C1020.85 1118 996 1093.15 996 1062.5C996 1031.85 1020.85 1007 1051.5 1007L1755.23 1007Z" fill="#D9D9D9"/>
<path d="M1755.23 1007L1766.08 1012.12L1774.16 995H1755.23V1007ZM1683.61 1118V1130H1689.16L1692.75 1125.77L1683.61 1118ZM1744.38 1001.88C1725.86 1041.13 1702.27 1077.52 1674.47 1110.23L1692.75 1125.77C1721.91 1091.48 1746.65 1053.3 1766.08 1012.12L1744.38 1001.88ZM1683.61 1106H1051.5V1130H1683.61V1106ZM1051.5 1106C1027.48 1106 1008 1086.52 1008 1062.5H984C984 1099.78 1014.22 1130 1051.5 1130V1106ZM1008 1062.5C1008 1038.48 1027.48 1019 1051.5 1019V995C1014.22 995 984 1025.22 984 1062.5H1008ZM1051.5 1019L1755.23 1019V995L1051.5 995V1019Z" fill="#9A231B" mask="url(#path-8-inside-4_105_131)"/>
<path fill-rule="evenodd" clip-rule="evenodd" d="M1745.77 560C1754.58 576.795 1762.48 594.151 1769.38 612H1362C1376.36 612 1388 623.641 1388 638H1672C1686.36 638 1698 649.641 1698 664C1698 678.359 1686.36 690 1672 690H901C886.641 690 875 678.359 875 664H816C815.91 664 815.82 664 815.73 663.999C820.433 646.261 826.082 628.909 832.621 612H1127C1112.64 612 1101 600.359 1101 586C1101 571.641 1112.64 560 1127 560H1745.77ZM1574.54 372C1608.63 394.196 1639.86 420.421 1667.55 450H1307C1292.64 450 1281 438.359 1281 424H960.639C998.976 388.621 1042.84 359.14 1090.79 337L1362 337C1376.36 337 1388 348.641 1388 363C1388 366.164 1387.43 369.196 1386.4 372H1574.54ZM1779.26 946C1784.68 929.041 1789.22 911.69 1792.84 894H1653.4C1654.43 891.196 1655 888.164 1655 885C1655 870.641 1643.36 859 1629 859H803.3C805.616 876.638 808.848 893.988 812.947 911H947.6C946.565 913.804 946 916.836 946 920C946 934.359 957.641 946 972 946H1779.26ZM1005.7 1199H1537C1551.36 1199 1563 1187.36 1563 1173C1563 1158.64 1551.36 1147 1537 1147H945.067C963.849 1165.88 984.123 1183.28 1005.7 1199ZM855.189 1024H1537C1551.36 1024 1563 1012.36 1563 998C1563 983.641 1551.36 972 1537 972H831.853C838.665 989.844 846.466 1007.2 855.189 1024Z" fill="#B80000"/>
<rect x="1269.5" y="920.5" width="285" height="243" rx="121.5" fill="#F30000" stroke="#D70F0F" stroke-width="33"/>
<rect x="873" y="920" width="123" height="64" rx="32" fill="#DF6B00"/>
<rect x="873" y="920" width="123" height="64" rx="32" fill="#DF6B00"/>
<rect x="1121" y="827" width="123" height="64" rx="32" fill="#BF461F"/>
<rect x="1502" y="666" width="123" height="64" rx="32" fill="#DF6B00"/>
<rect x="1502" y="666" width="123" height="64" rx="32" fill="#DF6B00"/>
<rect x="996" y="528" width="123" height="64" rx="32" fill="#BF461F"/>
<rect x="1376" y="337" width="123" height="64" rx="32" fill="#DF6B00"/>
<rect x="1376" y="337" width="123" height="64" rx="32" fill="#DF6B00"/>
<rect x="1244" y="592" width="123" height="64" rx="32" fill="#DF6B00"/>
<rect x="1244" y="592" width="123" height="64" rx="32" fill="#DF6B00"/>
<rect x="1132" y="1188" width="123" height="64" rx="32" fill="#BF461F"/>
<rect x="1412" y="1182" width="123" height="64" rx="32" fill="#ED3900"/>
<path fill-rule="evenodd" clip-rule="evenodd" d="M1077.5 1242.63C1242.58 1160.41 1356 989.948 1356 793C1356 596.051 1242.58 425.593 1077.5 343.375C912.417 425.593 799 596.051 799 793C799 989.948 912.417 1160.41 1077.5 1242.63Z" fill="black" fill-opacity="0.42"/>
<path fill-rule="evenodd" clip-rule="evenodd" d="M1020 1209.05C1153.35 1118.8 1241 966.138 1241 793C1241 619.862 1153.35 467.196 1020 376.955C886.651 467.196 799 619.862 799 793C799 966.138 886.651 1118.8 1020 1209.05Z" fill="black" fill-opacity="0.46"/>
<path fill-rule="evenodd" clip-rule="evenodd" d="M973 1173.04C1079.56 1080.98 1147 944.867 1147 793C1147 641.133 1079.56 505.016 973 412.963C866.437 505.016 799 641.133 799 793C799 944.867 866.437 1080.98 973 1173.04Z" fill="black"/>
<defs>
<radialGradient id="paint0_radial_105_131" cx="0" cy="0" r="1" gradientUnits="userSpaceOnUse" gradientTransform="translate(1412 779) rotate(90) scale(779)">
<stop offset="0.432292" stop-color="#F07E3E"/>
<stop offset="0.786458" stop-color="#E15A0E" stop-opacity="0"/>
</radialGradient>
</defs>
</svg>
