<svg width="1911" height="1487" viewBox="0 0 1911 1487" fill="none" xmlns="http://www.w3.org/2000/svg">
<circle cx="955.5" cy="743.5" r="743.5" fill="url(#paint0_radial_37_61)"/>
<circle cx="955" cy="743" r="736" fill="url(#paint1_radial_37_61)"/>
<g filter="url(#filter0_d_37_61)">
<path fill-rule="evenodd" clip-rule="evenodd" d="M976.7 463.597C975.71 459.824 974.543 456.062 973.195 452.322C948.787 384.628 874.123 349.538 806.429 373.946C738.735 398.354 703.645 473.017 728.053 540.711C729.401 544.451 730.903 548.092 732.549 551.629C715.624 487.112 750.477 419.197 814.431 396.138C878.385 373.079 948.559 403.125 976.7 463.597Z" fill="#FFD79C"/>
</g>
<g filter="url(#filter1_d_37_61)">
<path fill-rule="evenodd" clip-rule="evenodd" d="M1287.84 674.455C1289.55 669.791 1291.07 665.011 1292.38 660.121C1316.09 571.62 1263.57 480.651 1175.07 456.938C1086.57 433.224 995.601 485.744 971.888 574.245C970.577 579.135 969.5 584.032 968.648 588.925C997.873 509.187 1083.69 463.548 1167.3 485.951C1250.91 508.355 1302.4 590.787 1287.84 674.455Z" fill="#FFD79C"/>
</g>
<g filter="url(#filter2_d_37_61)">
<path fill-rule="evenodd" clip-rule="evenodd" d="M1139 995.097C1145.78 995.706 1152.65 996.017 1159.6 996.017C1285.25 996.017 1387.11 894.158 1387.11 768.508C1387.11 642.859 1285.25 541 1159.6 541C1152.66 541 1145.79 541.311 1139 541.92C1255 552.329 1345.91 649.801 1345.91 768.508C1345.91 887.216 1255 984.689 1139 995.097Z" fill="#FFD79C" fill-opacity="0.84" shape-rendering="crispEdges"/>
</g>
<g filter="url(#filter3_d_37_61)">
<path fill-rule="evenodd" clip-rule="evenodd" d="M1174.76 760.928C1180.68 759.897 1186.61 758.593 1192.53 757.006C1299.68 728.296 1363.27 618.16 1334.56 511.011C1305.85 403.861 1195.71 340.274 1088.56 368.985C1082.64 370.571 1076.86 372.406 1071.21 374.475C1172.51 356.847 1272.31 419.194 1299.43 520.423C1326.56 621.652 1271.3 725.547 1174.76 760.928Z" fill="#FFC977" fill-opacity="0.77" shape-rendering="crispEdges"/>
</g>
<g filter="url(#filter4_d_37_61)">
<path fill-rule="evenodd" clip-rule="evenodd" d="M1174.06 511.09C1174.41 507.205 1174.59 503.271 1174.59 499.295C1174.59 427.335 1116.25 369 1044.29 369C972.335 369 914 427.335 914 499.295C914 503.271 914.178 507.205 914.527 511.09C920.488 444.658 976.311 392.591 1044.29 392.591C1112.28 392.591 1168.1 444.658 1174.06 511.09Z" fill="#FFD79C"/>
</g>
<g filter="url(#filter5_d_37_61)">
<path fill-rule="evenodd" clip-rule="evenodd" d="M1207.91 534.593C1207.62 527.195 1207.01 519.746 1206.05 512.261C1188.64 376.807 1064.72 281.114 929.261 298.524C793.807 315.935 698.114 439.855 715.524 575.309C716.486 582.793 717.773 590.156 719.369 597.384C714.518 470.893 806.999 359.379 934.969 342.931C1062.94 326.482 1180.62 410.985 1207.91 534.593Z" fill="#FFD79C" fill-opacity="0.76" shape-rendering="crispEdges"/>
</g>
<g filter="url(#filter6_d_37_61)">
<path fill-rule="evenodd" clip-rule="evenodd" d="M924.923 562.252C925.351 557.486 925.569 552.661 925.569 547.785C925.569 459.538 854.031 388 765.785 388C677.538 388 606 459.538 606 547.785C606 552.66 606.218 557.484 606.646 562.248C613.957 480.78 682.414 416.93 765.784 416.93C849.156 416.93 917.614 480.782 924.923 562.252Z" fill="#FFE178"/>
</g>
<g filter="url(#filter7_d_37_61)">
<path fill-rule="evenodd" clip-rule="evenodd" d="M649.598 335.735C643.898 338.378 638.266 341.298 632.72 344.5C532.359 402.443 497.973 530.774 555.916 631.135C613.86 731.496 742.191 765.882 842.552 707.939C848.096 704.738 853.438 701.322 858.575 697.708C761.124 742.885 643.56 706.954 588.818 612.14C534.076 517.323 561.744 397.541 649.598 335.735Z" fill="#FF906C" fill-opacity="0.47" shape-rendering="crispEdges"/>
</g>
<g filter="url(#filter8_d_37_61)">
<path fill-rule="evenodd" clip-rule="evenodd" d="M773.858 545.724C769.365 544.077 764.761 542.617 760.051 541.355C674.811 518.515 587.195 569.1 564.355 654.34C541.515 739.58 592.1 827.195 677.34 850.035C682.049 851.297 686.765 852.335 691.477 853.155C614.678 825.007 570.722 742.357 592.3 661.828C613.878 581.297 693.272 531.698 773.858 545.724Z" fill="#FFD79C"/>
</g>
<g filter="url(#filter9_d_37_61)">
<path fill-rule="evenodd" clip-rule="evenodd" d="M858.156 828.481C857.335 823.768 856.297 819.05 855.035 814.34C832.195 729.1 744.58 678.515 659.34 701.355C574.1 724.195 523.515 811.811 546.355 897.05C547.617 901.759 549.076 906.363 550.722 910.854C536.699 830.27 586.298 750.877 666.827 729.3C747.358 707.722 830.009 751.68 858.156 828.481Z" fill="#FFE7C4" fill-opacity="0.9" shape-rendering="crispEdges"/>
</g>
<g filter="url(#filter10_d_37_61)">
<path fill-rule="evenodd" clip-rule="evenodd" d="M700.063 715.695C694.577 719.232 689.2 723.044 683.952 727.134C588.986 801.148 572 938.134 646.015 1033.1C720.029 1128.07 857.015 1145.05 951.982 1071.04C957.228 1066.95 962.236 1062.67 967.004 1058.21C873.201 1118.67 747.072 1098.56 677.148 1008.84C607.223 919.117 618.52 791.891 700.063 715.695Z" fill="#FFCEB3" fill-opacity="0.77" shape-rendering="crispEdges"/>
</g>
<g filter="url(#filter11_d_37_61)">
<path fill-rule="evenodd" clip-rule="evenodd" d="M722.002 860.21C719.249 864.123 716.647 868.193 714.209 872.416C670.085 948.839 696.27 1046.56 772.694 1090.69C849.118 1134.81 946.84 1108.62 990.964 1032.2C993.401 1027.98 995.624 1023.69 997.636 1019.35C950.57 1086.25 859.36 1107.32 787.159 1065.63C714.957 1023.95 687.597 934.419 722.002 860.21Z" fill="#FFD79C"/>
</g>
<g filter="url(#filter12_d_37_61)">
<path fill-rule="evenodd" clip-rule="evenodd" d="M955.755 1006.43C958.822 1010.1 962.08 1013.67 965.528 1017.12C1027.93 1079.52 1129.1 1079.52 1191.5 1017.12C1253.9 954.72 1253.9 853.55 1191.5 791.15C1188.05 787.703 1184.48 784.446 1180.81 781.38C1233.25 844.156 1229.99 937.711 1171.04 996.663C1112.09 1055.62 1018.53 1058.87 955.755 1006.43Z" fill="#FFE9C9"/>
</g>
<g filter="url(#filter13_d_37_61)">
<path fill-rule="evenodd" clip-rule="evenodd" d="M848.122 694.546C843.471 701.155 839.076 708.03 834.958 715.164C760.422 844.262 804.655 1009.34 933.754 1083.88C1062.85 1158.41 1227.93 1114.18 1302.47 985.079C1306.58 977.947 1310.34 970.705 1313.74 963.375C1234.23 1076.38 1080.15 1111.97 958.189 1041.55C836.223 971.135 790.004 819.903 848.122 694.546Z" fill="#FFD79C" fill-opacity="0.82" shape-rendering="crispEdges"/>
</g>
<circle cx="955.5" cy="743.5" r="440.5" fill="url(#paint2_radial_37_61)"/>
<circle cx="955" cy="743" r="320" fill="#FFF8DE"/>
<path d="M1162.8 582.779C1178.26 609.561 1172.72 638.249 1155.09 648.428C1137.46 658.607 1109.84 649.061 1094.38 622.279C1078.92 595.496 1084.46 566.809 1102.09 556.629C1119.72 546.45 1147.33 555.996 1162.8 582.779Z" stroke="#FFE7C4" stroke-width="13"/>
<mask id="path-20-inside-1_37_61" fill="white">
<path d="M1174.51 568.033C1177.27 565.954 1177.93 562.065 1175.82 559.33C1170.41 552.305 1164.2 546.085 1157.41 540.925C1149.06 534.574 1140.02 529.958 1130.82 527.356C1121.63 524.753 1112.47 524.216 1103.9 525.777C1097.94 526.863 1092.34 528.95 1087.27 531.964C1083.52 534.197 1082.93 539.19 1085.49 542.731V542.731C1088.31 546.63 1093.82 547.234 1098.12 545.069C1101.5 543.365 1105.14 542.149 1108.97 541.451C1115.79 540.209 1123.08 540.636 1130.4 542.708C1137.72 544.779 1144.91 548.452 1151.56 553.507C1156.48 557.245 1161.02 561.682 1165.04 566.666C1167.36 569.545 1171.56 570.26 1174.51 568.033V568.033Z"/>
</mask>
<path d="M1174.51 568.033C1177.27 565.954 1177.93 562.065 1175.82 559.33C1170.41 552.305 1164.2 546.085 1157.41 540.925C1149.06 534.574 1140.02 529.958 1130.82 527.356C1121.63 524.753 1112.47 524.216 1103.9 525.777C1097.94 526.863 1092.34 528.95 1087.27 531.964C1083.52 534.197 1082.93 539.19 1085.49 542.731V542.731C1088.31 546.63 1093.82 547.234 1098.12 545.069C1101.5 543.365 1105.14 542.149 1108.97 541.451C1115.79 540.209 1123.08 540.636 1130.4 542.708C1137.72 544.779 1144.91 548.452 1151.56 553.507C1156.48 557.245 1161.02 561.682 1165.04 566.666C1167.36 569.545 1171.56 570.26 1174.51 568.033V568.033Z" stroke="#FFE7C4" stroke-width="26" stroke-linejoin="round" mask="url(#path-20-inside-1_37_61)"/>
<mask id="path-21-inside-2_37_61" fill="white">
<path d="M1161.01 668.902C1162.95 672.903 1167.75 674.731 1171.5 672.341C1177.34 668.62 1182.39 663.661 1186.44 657.646C1191.09 650.724 1194.31 642.555 1195.93 633.582C1196.51 630.366 1194.58 627.286 1191.52 626.137V626.137C1187.13 624.485 1182.38 627.454 1181.14 631.984C1179.71 637.274 1177.52 642.132 1174.66 646.396C1171.91 650.484 1168.58 653.96 1164.77 656.732C1160.92 659.531 1158.93 664.622 1161.01 668.902V668.902Z"/>
</mask>
<path d="M1161.01 668.902C1162.95 672.903 1167.75 674.731 1171.5 672.341C1177.34 668.62 1182.39 663.661 1186.44 657.646C1191.09 650.724 1194.31 642.555 1195.93 633.582C1196.51 630.366 1194.58 627.286 1191.52 626.137V626.137C1187.13 624.485 1182.38 627.454 1181.14 631.984C1179.71 637.274 1177.52 642.132 1174.66 646.396C1171.91 650.484 1168.58 653.96 1164.77 656.732C1160.92 659.531 1158.93 664.622 1161.01 668.902V668.902Z" stroke="#FFE7C4" stroke-width="26" stroke-linejoin="round" mask="url(#path-21-inside-2_37_61)"/>
<mask id="path-22-inside-3_37_61" fill="white">
<path d="M1069.56 598.502C1065.27 598.209 1061.8 601.948 1062.78 606.134C1065.59 618.205 1070.78 630.02 1077.96 640.618C1084.94 650.933 1093.58 659.749 1103.19 666.431C1106.95 669.042 1111.97 666.888 1113.12 662.461V662.461C1113.93 659.35 1112.51 656.115 1109.82 654.344C1101.61 648.924 1094.23 641.556 1088.33 632.844C1082.39 624.076 1078.16 614.26 1075.99 604.257C1075.31 601.14 1072.74 598.719 1069.56 598.502V598.502Z"/>
</mask>
<path d="M1069.56 598.502C1065.27 598.209 1061.8 601.948 1062.78 606.134C1065.59 618.205 1070.78 630.02 1077.96 640.618C1084.94 650.933 1093.58 659.749 1103.19 666.431C1106.95 669.042 1111.97 666.888 1113.12 662.461V662.461C1113.93 659.35 1112.51 656.115 1109.82 654.344C1101.61 648.924 1094.23 641.556 1088.33 632.844C1082.39 624.076 1078.16 614.26 1075.99 604.257C1075.31 601.14 1072.74 598.719 1069.56 598.502V598.502Z" stroke="#FFE7C4" stroke-width="26" stroke-linejoin="round" mask="url(#path-22-inside-3_37_61)"/>
<circle cx="870" cy="828" r="85" stroke="#FFE6C0" stroke-width="25"/>
<path d="M984 828.5C984 813.595 981.064 798.836 975.36 785.065C969.656 771.295 961.296 758.783 950.757 748.243L950.554 748.446C961.067 758.959 969.406 771.44 975.095 785.175C980.785 798.911 983.713 813.633 983.713 828.5H984Z" stroke="#FFEACB" stroke-width="25" stroke-linejoin="round"/>
<path d="M888.908 772.142C875.022 767.26 859.765 768.094 846.493 774.461L846.554 774.587C859.792 768.236 875.01 767.404 888.861 772.274L888.908 772.142Z" stroke="#FFEACB" stroke-width="25" stroke-linejoin="round"/>
<path d="M922.681 843.404C927.695 829.564 927.006 814.3 920.765 800.969L920.638 801.029C926.863 814.326 927.55 829.552 922.55 843.356L922.681 843.404Z" stroke="#FFEACB" stroke-width="25" stroke-linejoin="round"/>
<path d="M819.018 845.232C821.74 851.993 825.768 858.151 830.87 863.355C835.973 868.56 842.051 872.708 848.756 875.563L848.811 875.434C842.122 872.586 836.06 868.448 830.97 863.257C825.881 858.066 821.863 851.923 819.148 845.18L819.018 845.232Z" stroke="#FFEACB" stroke-width="25" stroke-linejoin="round"/>
<path d="M896.803 938.91C911.302 935.456 924.979 929.18 937.053 920.44C949.127 911.7 959.361 900.668 967.171 887.973L966.927 887.822C959.136 900.485 948.928 911.49 936.885 920.208C924.842 928.925 911.199 935.186 896.737 938.631L896.803 938.91Z" stroke="#FFEACB" stroke-width="25" stroke-linejoin="round"/>
<path d="M757.482 818.055C756.11 832.897 757.675 847.864 762.088 862.101C766.5 876.338 773.674 889.566 783.198 901.031L783.419 900.847C773.918 889.412 766.763 876.217 762.362 862.016C757.96 847.815 756.399 832.886 757.767 818.082L757.482 818.055Z" stroke="#FFEACB" stroke-width="25" stroke-linejoin="round"/>
<defs>
<filter id="filter0_d_37_61" x="695.293" y="341.186" width="306.407" height="235.442" filterUnits="userSpaceOnUse" color-interpolation-filters="sRGB">
<feFlood flood-opacity="0" result="BackgroundImageFix"/>
<feColorMatrix in="SourceAlpha" type="matrix" values="0 0 0 0 0 0 0 0 0 0 0 0 0 0 0 0 0 0 127 0" result="hardAlpha"/>
<feOffset/>
<feGaussianBlur stdDeviation="12.5"/>
<feComposite in2="hardAlpha" operator="out"/>
<feColorMatrix type="matrix" values="0 0 0 0 1 0 0 0 0 0.9195 0 0 0 0 0.7125 0 0 0 0.74 0"/>
<feBlend mode="normal" in2="BackgroundImageFix" result="effect1_dropShadow_37_61"/>
<feBlend mode="normal" in="SourceGraphic" in2="effect1_dropShadow_37_61" result="shape"/>
</filter>
<filter id="filter1_d_37_61" x="943.648" y="426.244" width="379.424" height="273.211" filterUnits="userSpaceOnUse" color-interpolation-filters="sRGB">
<feFlood flood-opacity="0" result="BackgroundImageFix"/>
<feColorMatrix in="SourceAlpha" type="matrix" values="0 0 0 0 0 0 0 0 0 0 0 0 0 0 0 0 0 0 127 0" result="hardAlpha"/>
<feOffset/>
<feGaussianBlur stdDeviation="12.5"/>
<feComposite in2="hardAlpha" operator="out"/>
<feColorMatrix type="matrix" values="0 0 0 0 1 0 0 0 0 0.9195 0 0 0 0 0.7125 0 0 0 0.74 0"/>
<feBlend mode="normal" in2="BackgroundImageFix" result="effect1_dropShadow_37_61"/>
<feBlend mode="normal" in="SourceGraphic" in2="effect1_dropShadow_37_61" result="shape"/>
</filter>
<filter id="filter2_d_37_61" x="1114" y="516" width="298.105" height="505.017" filterUnits="userSpaceOnUse" color-interpolation-filters="sRGB">
<feFlood flood-opacity="0" result="BackgroundImageFix"/>
<feColorMatrix in="SourceAlpha" type="matrix" values="0 0 0 0 0 0 0 0 0 0 0 0 0 0 0 0 0 0 127 0" result="hardAlpha"/>
<feOffset/>
<feGaussianBlur stdDeviation="12.5"/>
<feComposite in2="hardAlpha" operator="out"/>
<feColorMatrix type="matrix" values="0 0 0 0 1 0 0 0 0 0.9195 0 0 0 0 0.7125 0 0 0 0.74 0"/>
<feBlend mode="normal" in2="BackgroundImageFix" result="effect1_dropShadow_37_61"/>
<feBlend mode="normal" in="SourceGraphic" in2="effect1_dropShadow_37_61" result="shape"/>
</filter>
<filter id="filter3_d_37_61" x="1046.21" y="337.091" width="320.242" height="448.837" filterUnits="userSpaceOnUse" color-interpolation-filters="sRGB">
<feFlood flood-opacity="0" result="BackgroundImageFix"/>
<feColorMatrix in="SourceAlpha" type="matrix" values="0 0 0 0 0 0 0 0 0 0 0 0 0 0 0 0 0 0 127 0" result="hardAlpha"/>
<feOffset/>
<feGaussianBlur stdDeviation="12.5"/>
<feComposite in2="hardAlpha" operator="out"/>
<feColorMatrix type="matrix" values="0 0 0 0 1 0 0 0 0 0.9195 0 0 0 0 0.7125 0 0 0 0.74 0"/>
<feBlend mode="normal" in2="BackgroundImageFix" result="effect1_dropShadow_37_61"/>
<feBlend mode="normal" in="SourceGraphic" in2="effect1_dropShadow_37_61" result="shape"/>
</filter>
<filter id="filter4_d_37_61" x="889" y="344" width="310.59" height="192.09" filterUnits="userSpaceOnUse" color-interpolation-filters="sRGB">
<feFlood flood-opacity="0" result="BackgroundImageFix"/>
<feColorMatrix in="SourceAlpha" type="matrix" values="0 0 0 0 0 0 0 0 0 0 0 0 0 0 0 0 0 0 127 0" result="hardAlpha"/>
<feOffset/>
<feGaussianBlur stdDeviation="12.5"/>
<feComposite in2="hardAlpha" operator="out"/>
<feColorMatrix type="matrix" values="0 0 0 0 1 0 0 0 0 0.9195 0 0 0 0 0.7125 0 0 0 0.74 0"/>
<feBlend mode="normal" in2="BackgroundImageFix" result="effect1_dropShadow_37_61"/>
<feBlend mode="normal" in="SourceGraphic" in2="effect1_dropShadow_37_61" result="shape"/>
</filter>
<filter id="filter5_d_37_61" x="688.479" y="271.479" width="544.429" height="350.905" filterUnits="userSpaceOnUse" color-interpolation-filters="sRGB">
<feFlood flood-opacity="0" result="BackgroundImageFix"/>
<feColorMatrix in="SourceAlpha" type="matrix" values="0 0 0 0 0 0 0 0 0 0 0 0 0 0 0 0 0 0 127 0" result="hardAlpha"/>
<feOffset/>
<feGaussianBlur stdDeviation="12.5"/>
<feComposite in2="hardAlpha" operator="out"/>
<feColorMatrix type="matrix" values="0 0 0 0 1 0 0 0 0 0.9195 0 0 0 0 0.7125 0 0 0 0.74 0"/>
<feBlend mode="normal" in2="BackgroundImageFix" result="effect1_dropShadow_37_61"/>
<feBlend mode="normal" in="SourceGraphic" in2="effect1_dropShadow_37_61" result="shape"/>
</filter>
<filter id="filter6_d_37_61" x="581" y="363" width="369.569" height="224.252" filterUnits="userSpaceOnUse" color-interpolation-filters="sRGB">
<feFlood flood-opacity="0" result="BackgroundImageFix"/>
<feColorMatrix in="SourceAlpha" type="matrix" values="0 0 0 0 0 0 0 0 0 0 0 0 0 0 0 0 0 0 127 0" result="hardAlpha"/>
<feOffset/>
<feGaussianBlur stdDeviation="12.5"/>
<feComposite in2="hardAlpha" operator="out"/>
<feColorMatrix type="matrix" values="0 0 0 0 1 0 0 0 0 0.9195 0 0 0 0 0.7125 0 0 0 0.74 0"/>
<feBlend mode="normal" in2="BackgroundImageFix" result="effect1_dropShadow_37_61"/>
<feBlend mode="normal" in="SourceGraphic" in2="effect1_dropShadow_37_61" result="shape"/>
</filter>
<filter id="filter7_d_37_61" x="502.77" y="310.735" width="380.806" height="450.351" filterUnits="userSpaceOnUse" color-interpolation-filters="sRGB">
<feFlood flood-opacity="0" result="BackgroundImageFix"/>
<feColorMatrix in="SourceAlpha" type="matrix" values="0 0 0 0 0 0 0 0 0 0 0 0 0 0 0 0 0 0 127 0" result="hardAlpha"/>
<feOffset/>
<feGaussianBlur stdDeviation="12.5"/>
<feComposite in2="hardAlpha" operator="out"/>
<feColorMatrix type="matrix" values="0 0 0 0 1 0 0 0 0 0.7125 0 0 0 0 0.7125 0 0 0 0.74 0"/>
<feBlend mode="normal" in2="BackgroundImageFix" result="effect1_dropShadow_37_61"/>
<feBlend mode="normal" in="SourceGraphic" in2="effect1_dropShadow_37_61" result="shape"/>
</filter>
<filter id="filter8_d_37_61" x="533.871" y="510.871" width="264.986" height="367.284" filterUnits="userSpaceOnUse" color-interpolation-filters="sRGB">
<feFlood flood-opacity="0" result="BackgroundImageFix"/>
<feColorMatrix in="SourceAlpha" type="matrix" values="0 0 0 0 0 0 0 0 0 0 0 0 0 0 0 0 0 0 127 0" result="hardAlpha"/>
<feOffset/>
<feGaussianBlur stdDeviation="12.5"/>
<feComposite in2="hardAlpha" operator="out"/>
<feColorMatrix type="matrix" values="0 0 0 0 1 0 0 0 0 0.9195 0 0 0 0 0.7125 0 0 0 0.74 0"/>
<feBlend mode="normal" in2="BackgroundImageFix" result="effect1_dropShadow_37_61"/>
<feBlend mode="normal" in="SourceGraphic" in2="effect1_dropShadow_37_61" result="shape"/>
</filter>
<filter id="filter9_d_37_61" x="515.871" y="670.871" width="367.284" height="264.982" filterUnits="userSpaceOnUse" color-interpolation-filters="sRGB">
<feFlood flood-opacity="0" result="BackgroundImageFix"/>
<feColorMatrix in="SourceAlpha" type="matrix" values="0 0 0 0 0 0 0 0 0 0 0 0 0 0 0 0 0 0 127 0" result="hardAlpha"/>
<feOffset/>
<feGaussianBlur stdDeviation="12.5"/>
<feComposite in2="hardAlpha" operator="out"/>
<feColorMatrix type="matrix" values="0 0 0 0 1 0 0 0 0 0.9195 0 0 0 0 0.7125 0 0 0 0.74 0"/>
<feBlend mode="normal" in2="BackgroundImageFix" result="effect1_dropShadow_37_61"/>
<feBlend mode="normal" in="SourceGraphic" in2="effect1_dropShadow_37_61" result="shape"/>
</filter>
<filter id="filter10_d_37_61" x="574.949" y="690.695" width="417.055" height="451.409" filterUnits="userSpaceOnUse" color-interpolation-filters="sRGB">
<feFlood flood-opacity="0" result="BackgroundImageFix"/>
<feColorMatrix in="SourceAlpha" type="matrix" values="0 0 0 0 0 0 0 0 0 0 0 0 0 0 0 0 0 0 127 0" result="hardAlpha"/>
<feOffset/>
<feGaussianBlur stdDeviation="12.5"/>
<feComposite in2="hardAlpha" operator="out"/>
<feColorMatrix type="matrix" values="0 0 0 0 1 0 0 0 0 0.9195 0 0 0 0 0.7125 0 0 0 0.74 0"/>
<feBlend mode="normal" in2="BackgroundImageFix" result="effect1_dropShadow_37_61"/>
<feBlend mode="normal" in="SourceGraphic" in2="effect1_dropShadow_37_61" result="shape"/>
</filter>
<filter id="filter11_d_37_61" x="667.775" y="835.21" width="354.86" height="301.909" filterUnits="userSpaceOnUse" color-interpolation-filters="sRGB">
<feFlood flood-opacity="0" result="BackgroundImageFix"/>
<feColorMatrix in="SourceAlpha" type="matrix" values="0 0 0 0 0 0 0 0 0 0 0 0 0 0 0 0 0 0 127 0" result="hardAlpha"/>
<feOffset/>
<feGaussianBlur stdDeviation="12.5"/>
<feComposite in2="hardAlpha" operator="out"/>
<feColorMatrix type="matrix" values="0 0 0 0 1 0 0 0 0 0.9195 0 0 0 0 0.7125 0 0 0 0.74 0"/>
<feBlend mode="normal" in2="BackgroundImageFix" result="effect1_dropShadow_37_61"/>
<feBlend mode="normal" in="SourceGraphic" in2="effect1_dropShadow_37_61" result="shape"/>
</filter>
<filter id="filter12_d_37_61" x="930.755" y="756.38" width="332.542" height="332.54" filterUnits="userSpaceOnUse" color-interpolation-filters="sRGB">
<feFlood flood-opacity="0" result="BackgroundImageFix"/>
<feColorMatrix in="SourceAlpha" type="matrix" values="0 0 0 0 0 0 0 0 0 0 0 0 0 0 0 0 0 0 127 0" result="hardAlpha"/>
<feOffset/>
<feGaussianBlur stdDeviation="12.5"/>
<feComposite in2="hardAlpha" operator="out"/>
<feColorMatrix type="matrix" values="0 0 0 0 1 0 0 0 0 0.9195 0 0 0 0 0.7125 0 0 0 0.74 0"/>
<feBlend mode="normal" in2="BackgroundImageFix" result="effect1_dropShadow_37_61"/>
<feBlend mode="normal" in="SourceGraphic" in2="effect1_dropShadow_37_61" result="shape"/>
</filter>
<filter id="filter13_d_37_61" x="773.751" y="669.546" width="564.986" height="475.536" filterUnits="userSpaceOnUse" color-interpolation-filters="sRGB">
<feFlood flood-opacity="0" result="BackgroundImageFix"/>
<feColorMatrix in="SourceAlpha" type="matrix" values="0 0 0 0 0 0 0 0 0 0 0 0 0 0 0 0 0 0 127 0" result="hardAlpha"/>
<feOffset/>
<feGaussianBlur stdDeviation="12.5"/>
<feComposite in2="hardAlpha" operator="out"/>
<feColorMatrix type="matrix" values="0 0 0 0 1 0 0 0 0 0.9195 0 0 0 0 0.7125 0 0 0 0.74 0"/>
<feBlend mode="normal" in2="BackgroundImageFix" result="effect1_dropShadow_37_61"/>
<feBlend mode="normal" in="SourceGraphic" in2="effect1_dropShadow_37_61" result="shape"/>
</filter>
<radialGradient id="paint0_radial_37_61" cx="0" cy="0" r="1" gradientUnits="userSpaceOnUse" gradientTransform="translate(955.5 743.5) rotate(90) scale(743.5)">
<stop offset="0.411458" stop-color="#FF5C00"/>
<stop offset="0.973958" stop-color="#FF9B63" stop-opacity="0"/>
</radialGradient>
<radialGradient id="paint1_radial_37_61" cx="0" cy="0" r="1" gradientUnits="userSpaceOnUse" gradientTransform="translate(955 743) rotate(90) scale(736)">
<stop offset="0.473958" stop-color="#FFBA52" stop-opacity="0.61"/>
<stop offset="0.729167" stop-color="#D9D9D9" stop-opacity="0"/>
</radialGradient>
<radialGradient id="paint2_radial_37_61" cx="0" cy="0" r="1" gradientUnits="userSpaceOnUse" gradientTransform="translate(955.5 743.5) rotate(90) scale(440.5)">
<stop offset="0.708333" stop-color="white"/>
<stop offset="1" stop-color="#D9D9D9" stop-opacity="0"/>
</radialGradient>
</defs>
</svg>
